<?xml version="1.0" encoding="UTF-8"?>
<svg width="100" height="60" viewBox="0 0 100 60" fill="none" xmlns="http://www.w3.org/2000/svg">
  <rect width="100" height="60" rx="5" fill="#F7F9FC"/>
  <path d="M86 40H14V20H86V40Z" fill="#006FCF"/>
  <path d="M50.5 34.9L52.2 30.5H55.5L52.6 37.4H48.5L45.5 30.5H48.8L50.5 34.9Z" fill="white"/>
  <path d="M56.5 37.3999H60.7L63.1 34.9999H65.4V37.3999H68.2V34.9999H72.2C74.3 34.9999 76 33.2999 76 31.1999C76 29.0999 74.3 27.3999 72.2 27.3999H65.3V29.7999H72.1C72.9 29.7999 73.5 30.3999 73.5 31.1999C73.5 31.9999 72.9 32.5999 72.1 32.5999H56.5V37.3999Z" fill="white"/>
  <path d="M71.1 30.6H73.6L76 27.4H68.2V34.2H65.4V27.4H60.6L58.2 30.6L55.8 27.4H32L31.1 29.8H28.5L27.6 32.2H25L24.1 34.6H21.5L20.6 37H27.4L28.3 34.6H30.9L31.8 32.2H34.4L35.3 29.8H37.9L38.8 27.4H34.7V34.2H31.9V30.6H29.7L28.1 34.2H22.9L24.5 30.6H20.6L17.6 37.4H43.3L44.2 35H46.8L47.7 32.6H50.3L51.2 30.2H53.8L54.7 27.8H58.8L61.2 30.2L63.6 27.8H71.1V30.6Z" fill="white"/>
</svg>
