<?xml version="1.0" encoding="UTF-8"?>
<svg width="100" height="60" viewBox="0 0 100 60" fill="none" xmlns="http://www.w3.org/2000/svg">
  <rect width="100" height="60" rx="5" fill="#F7F9FC"/>
  <path d="M74 40H14V20H74C80.6 20 86 25.4 86 30C86 34.6 80.6 40 74 40Z" fill="white"/>
  <path d="M74 40C80.6 40 86 34.6 86 30C86 25.4 80.6 20 74 20" fill="#FF6600"/>
  <path d="M26.1 29.7C26.1 32.3 24.1 34.3 21.5 34.3H17.5V25.1H21.5C24.1 25.1 26.1 27.1 26.1 29.7ZM23.7 29.7C23.7 28.4 22.8 27.4 21.4 27.4H19.9V32H21.4C22.8 32 23.7 31 23.7 29.7Z" fill="black"/>
  <path d="M27.3 34.3V25.1H29.7V34.3H27.3Z" fill="black"/>
  <path d="M35.1 29.2C33.6 28.6 33.2 28.3 33.2 27.7C33.2 27.1 33.8 26.6 34.6 26.6C35.2 26.6 35.7 26.9 36.2 27.6L37.6 26.2C36.7 25.3 35.7 24.9 34.5 24.9C32.8 24.9 31.4 26.1 31.4 27.8C31.4 29.2 32.1 30.1 34.1 30.9C35 31.3 35.3 31.5 35.5 31.6C36 31.9 36.2 32.3 36.2 32.8C36.2 33.6 35.5 34.2 34.6 34.2C33.7 34.2 33 33.8 32.5 32.9L30.9 34.2C31.8 35.6 33.1 36.4 34.5 36.4C36.5 36.4 38 35 38 32.9C38 31.1 37.2 30.1 35.1 29.2Z" fill="black"/>
  <path d="M38.8 32.1C38.8 34.6 40.8 36.5 43.5 36.5C44.5 36.5 45.3 36.3 46.3 35.8V33.3C45.4 34.1 44.7 34.4 43.7 34.4C42.1 34.4 41 33.2 41 32C41 30.8 42.1 29.6 43.6 29.6C44.7 29.6 45.3 29.9 46.3 30.7V28.2C45.4 27.7 44.6 27.5 43.6 27.5C40.9 27.5 38.8 29.5 38.8 32.1Z" fill="black"/>
  <path d="M58.9 34.3H61.7L57.2 29.3L61.3 25.1H58.4L54.9 29.3V25.1H52.5V34.3H54.9V32.9L55.9 31.9L58.9 34.3Z" fill="black"/>
  <path d="M64.7 34.3H62.2L66.2 25.1H68.8L72.8 34.3H70.3L69.6 32.7H65.4L64.7 34.3ZM67.4 27.7L66.2 30.6H68.7L67.4 27.7Z" fill="black"/>
  <path d="M77.5 34.3H75.1V27.4H72.6V25.1H80V27.4H77.5V34.3Z" fill="black"/>
</svg>
