<?xml version="1.0" encoding="UTF-8"?>
<svg width="100" height="60" viewBox="0 0 100 60" fill="none" xmlns="http://www.w3.org/2000/svg">
  <rect width="100" height="60" rx="5" fill="#F7F9FC"/>
  <circle cx="40" cy="30" r="16" fill="#EB001B"/>
  <circle cx="60" cy="30" r="16" fill="#F79E1B"/>
  <path fill-rule="evenodd" clip-rule="evenodd" d="M50 41.9999C56.6274 41.9999 62 36.6273 62 29.9999C62 23.3726 56.6274 18 50 18C43.3726 18 38 23.3726 38 29.9999C38 36.6273 43.3726 41.9999 50 41.9999Z" fill="#FF5F00"/>
  <path fill-rule="evenodd" clip-rule="evenodd" d="M49.9999 42C56.0751 42 61 36.6274 61 30C61 23.3726 56.0751 18 49.9999 18C43.9248 18 38.9999 23.3726 38.9999 30C38.9999 36.6274 43.9248 42 49.9999 42Z" fill="#FF5F00"/>
  <path d="M50 41.9999C56.6274 41.9999 62 36.6273 62 29.9999C62 23.3726 56.6274 18 50 18C43.3726 18 38 23.3726 38 29.9999C38 36.6273 43.3726 41.9999 50 41.9999Z" fill="#FF5F00"/>
  <path d="M50.0001 41.9999C56.0626 41.9999 61.0001 36.6273 61.0001 29.9999C61.0001 23.3726 56.0626 18 50.0001 18C43.9375 18 39 23.3726 39 29.9999C39 36.6273 43.9375 41.9999 50.0001 41.9999Z" fill="#FF5F00"/>
  <path d="M50 42C54.6667 42 58.6667 39.0925 60.4 34.85C58.8 38.7925 54.8667 41.5 50.2 41.5C43.6 41.5 38.2667 36.1675 38.2667 29.5675C38.2667 22.9675 43.6 17.635 50.2 17.635C54.8667 17.635 58.8 20.3425 60.4 24.285C58.6667 20.0425 54.6667 17.135 50 17.135C43.3724 17.135 38 22.5074 38 29.135C38 35.7626 43.3724 42 50 42Z" fill="#EB001B"/>
  <path d="M76 34.7V33.95H75.7333L75.4667 34.5L75.2 33.95H74.9333V34.7H75.1333V34.15L75.3667 34.65H75.5667L75.8 34.15V34.7H76ZM74.4 34.7V34.1H74.7333V33.95H73.8667V34.1H74.2V34.7H74.4Z" fill="#F79E1B"/>
  <path d="M76.8001 30.5349C76.8001 34.1349 73.8668 37.0674 70.2668 37.0674C68.5334 37.0674 67.0001 36.3174 65.8668 35.1349C67.5334 33.3675 68.5334 30.9349 68.5334 28.235C68.5334 25.535 67.5334 23.1025 65.8668 21.335C67.0001 20.1525 68.5334 19.4025 70.2668 19.4025C73.8668 19.4025 76.8001 22.335 76.8001 25.935V30.5349Z" fill="#F79E1B"/>
  <path d="M62.0001 28.25C62.0001 22.7174 64.6668 17.835 68.8001 15C67.0001 13.5 64.6668 12.5 62.0001 12.5C55.3334 12.5 50.0001 19.5825 50.0001 28.25C50.0001 36.9175 55.3334 44 62.0001 44C64.6668 44 67.0001 43 68.8001 41.5C64.6668 38.665 62.0001 33.7825 62.0001 28.25Z" fill="#EB001B"/>
</svg>
