<?xml version="1.0" encoding="UTF-8"?>
<svg width="100" height="60" viewBox="0 0 100 60" fill="none" xmlns="http://www.w3.org/2000/svg">
  <rect width="100" height="60" rx="5" fill="#F7F9FC"/>
  <path d="M42.0923 21H37.0505L34 39H39.0418L42.0923 21Z" fill="#1A1F71"/>
  <path d="M59.7143 21.4526C58.7802 21.0681 57.3186 21 55.5549 21C50.9011 21 47.6703 23.2649 47.6703 26.5298C47.6703 29.0289 50.1209 30.2544 51.9121 31.0235C53.7033 31.7925 54.2967 32.3085 54.2967 32.9777C54.2967 34.0678 52.9451 34.5839 51.6758 34.5839C49.8022 34.5839 48.7802 34.3179 47.1429 33.6754L46.4725 33.4094L45.7582 37.5631C46.8681 38.0791 48.9121 38.5132 51.0165 38.5132C55.9341 38.5132 59.0769 36.2767 59.0769 32.7398C59.0769 30.7728 57.9011 29.1981 55.2637 28.0446C53.5824 27.2756 52.5604 26.7595 52.5604 25.9071C52.5604 25.1381 53.4396 24.3691 55.3736 24.3691C56.9231 24.2876 58.1374 24.6721 59.0769 25.0566L59.5659 25.2391L60.2802 21.2682L59.7143 21.4526Z" fill="#1A1F71"/>
  <path d="M66.0439 32.0873C66.5329 30.7729 68.2143 26.0136 68.2143 26.0136C68.1593 26.0951 68.6484 24.6179 68.9396 23.7674L69.3736 25.8158C69.3736 25.8158 70.3407 30.9273 70.5769 32.0873C69.7527 32.0873 67.1648 32.0873 66.0439 32.0873ZM72.3132 21H68.3022C67.1264 21 66.2473 21.3845 65.7582 22.7804L58 39H63.0978C63.0978 39 63.9231 36.7335 64.1044 36.1904C64.6484 36.1904 70.4121 36.1904 71.1374 36.1904C71.2473 36.8881 71.6264 39 71.6264 39H76L72.3132 21Z" fill="#1A1F71"/>
  <path d="M32.5385 21L28 33.5631C27.9451 33.3916 27.0659 30.4798 27.0659 30.4798C27.0659 30.4798 26.4725 28.1983 26.3077 27.6008C24.4066 27.6008 21 27.6008 19.4505 27.6008C19.3407 27.7723 17 39 17 39H22.0879L26.9066 21H32.5385Z" fill="#1A1F71"/>
</svg>
