<svg xmlns="http://www.w3.org/2000/svg" fill="none" viewBox="0 0 124 16" height="16" width="124">
<g clip-path="url(#clip0_2218_4044)">
<path fill="white" d="M15.7369 10.22L10.3428 2.19875L5.07637 10.22L4.31193 11.3924L1.46645 15.728H0L10.1944 0.272461H14.1026L24.487 15.728H19.4328L16.5235 11.3924L15.7383 10.22H15.7369Z"></path>
<path fill="white" d="M27.1813 0.272461H37.205C44.447 0.272461 47.8655 1.13163 47.8655 4.39867C47.8655 6.43031 45.7206 7.58225 42.8113 7.87503C46.252 8.23073 48.4607 9.19388 48.4607 11.5402C48.4607 14.7443 44.7023 15.728 37.162 15.728H27.1813V0.272461ZM38.0333 7.2457C42.2175 7.2457 43.2997 6.34548 43.2997 4.43971C43.2997 2.05237 41.4739 1.42441 37.2258 1.42441H31.6833V7.2457H38.0333ZM37.2896 14.5541C41.6862 14.5541 43.7672 13.8837 43.7672 11.3924C43.7672 9.44424 42.5561 8.39764 38.1401 8.39764H31.6847V14.5541H37.291H37.2896Z"></path>
<path fill="white" d="M51.481 8.02121C51.481 3.28893 55.5792 0 64.0741 0C72.5689 0 76.6894 3.28756 76.6894 8.02121C76.6894 12.7549 72.5689 16 64.0741 16C55.5792 16 51.481 12.733 51.481 8.02121ZM71.8683 7.97879C71.8683 3.03583 69.5958 1.15195 64.0741 1.15195C58.5524 1.15195 56.2799 3.07824 56.2799 7.97879C56.2799 12.8793 58.5524 14.8275 64.0741 14.8275C69.5958 14.8275 71.8683 12.9012 71.8683 7.97879Z"></path>
<path fill="white" d="M77.4511 0.272461H82.5261L91.5093 13.6963L100.366 0.272461H101.916L91.7438 15.728H87.8577L77.4511 0.272461Z"></path>
<path fill="white" d="M104.612 0.272461H123.81V1.42441H109.198V7.20465H122.428V8.37712H109.198V14.5555H124V15.728H104.61V0.272461H104.612Z"></path>
</g>
<defs>
<clipPath id="clip0_2218_4044">
<rect fill="white" height="16" width="124"></rect>
</clipPath>
</defs>
</svg>
